<?xml version="1.0" encoding="utf-8"?>
<!-- Generator: Adobe Illustrator 18.0.0, SVG Export Plug-In . SVG Version: 6.00 Build 0)  -->
<!DOCTYPE svg PUBLIC "-//W3C//DTD SVG 1.1//EN" "http://www.w3.org/Graphics/SVG/1.1/DTD/svg11.dtd">
<svg version="1.1" id="Слой_2" xmlns="http://www.w3.org/2000/svg" xmlns:xlink="http://www.w3.org/1999/xlink" x="0px" y="0px"
	 viewBox="275 0 1034 1200" enable-background="new 275 0 1034 1200" xml:space="preserve">
<path fill="#FFD700"    d="M1080.7,754.1c1.6,2.3,5.3,4.3,4.9,7.5
	c-14.7,4.6-28.3,13-43.6,15.5c-4.1,0.7-7.8,1.2-12.1,1.3c-4.6,0.1-8.2,1.7-12.4,2.4c-4,0.7-8.8,1.2-12.7,1.3
	c-2.4,0.1-5.5-0.6-8.2-0.2c-0.1-0.2-0.2-0.5-0.4-0.7c-1.1,0.1-2.2-0.2-3.1-0.6c1.6-0.8,3.2-1.7,4.4-2.4c2.9-1.7,5.5-4.4,8.3-6.1
	c-2.5-0.2-5.7,2.2-8.1,3.1c-2.5,1-5.2,2-7.7,2.9c-0.6,0.2-1.3,0.4-1.9,0.5c-1.2-0.4-2.4-0.5-4-0.8c-2.2-0.5-4.4-1.4-6.9-2.5
	c4.7-4.7,9.6-9.5,13.5-14.5c-5.5,3.8-11.1,8.8-16.1,13.5c-0.7-0.4-1.4-0.6-2-0.8c-3.6-1.4-7.1-2.6-10.6-4c1.1-1.2,2.2-2.6,3.1-3.6
	c2.3-2.3,4.9-4,6-7.1c-4,3.1-7.6,6.6-11.3,10c-4.1-1.6-8.2-3.1-12.5-4.9c-1.1-0.5-2.2-1-3.2-1.3c4.4-4.8,9.4-10.1,12.1-15.9
	c-4.4,2.6-8.8,7.8-12.3,11.7c-1.1,1.2-1.9,2.3-2.6,3.1c-2.3-0.8-4.6-1.7-6.9-2.5c0.8-1.3,1.7-2.6,2.2-3.6c1.6-2.9,3.1-5.8,4.8-8.4
	c-3.1,4-7.1,7.2-10.6,10.8c-2.3-0.7-4.6-1.4-6.9-2c-2.8-0.7-5.2-1.9-7.3-3.1c2-2,3.6-5.4,4.6-7.6c1.1-2.3,2.8-4.8,3.5-7.1
	c-2,5.3-7.8,8.5-11.7,12.7c-2.6-1.3-5.4-2.3-8.8-1.9c-2.8-1.7-8.1-1.6-9.3,1.1c-1.8-2.8-4.1-3.4-6.4-2.8c0-1.1-0.1-2.2-0.1-3.2
	c0.2-2.8,1.3-6.1,0.8-8.9c-0.1,4-2.8,8.2-3.4,12c0,0.4-0.1,0.7-0.2,1.2c-3.5,1.9-7,5.5-9,7.6c-2.5,2.5-5.3,4.4-8.1,6.6
	c-1.1-5.3-2.2-10.6-3.4-16c-1.3-6-3.4-12.7-5.2-18.9c-0.7-2.3-1.6-4-2.8-5.4c2.8-7.3,5.2-14.9,7.2-22.2c1.3-5.1,2.5-9.9,4.7-14.7
	c1-2.3,2.4-4.8,4.3-6.5c1.7-1.4,4.6-2.2,5.8-4.4c-2.4-0.7-6.1,0.4-8.2,1.1c0-1.1-0.5-2-1.1-2.9c3.5-5.3,8.1-10,12.9-14.2
	c0.6,0.5,1.1,0.8,1.7,1.2c2.2,1.1,4,2.3,5.9,3.5c-1.7-1.8-4.8-3.7-6-5.9c0.8-0.7,1.7-1.4,2.6-2.3c1.8-1.6,3.6-3.4,5.4-5.3
	c0.4,0.4,0.8,0.7,1.3,1.2c1.8,1.8,3.4,4.4,5.9,5.2c-1.7-2.4-4.2-4.7-5.2-7.6c-0.1-0.2-0.1-0.5-0.2-0.7c2.3-2.3,4.6-4.4,7.1-5.8
	c5.1-2.6,12.1-0.2,17.4-1.9c-3-2.3-7-1.7-9.5-4.9c2.9-2.8,5.9-7,7.5-9.3c3.1-4.4,6.3-8.5,9.6-12.9c3.6-4.6,6.9-9.9,9.9-14.7
	c1.7-2.8,2-5.5,4.3-7.9c1.9-1.9,5.3-2.4,6.5-4.8c-2.3-0.2-3.5,1.9-5.5,1.9c-0.5,0-0.8-0.1-1.3-0.2c0.8-4.4,0.6-9.7,2.5-14.1
	c1.3-3.1,9.1-9,9.1-1.9c3.1-4.4-6.1-6.7-9-5.2c-2.8-4-7.5,1.7-9.1,3.8c1.9-0.4,3.5-2.2,5.7-2.4c0.4,4.2-0.6,8.1-1.2,12.1
	c-0.2,1.6-0.1,3.8-0.2,6c-0.4-0.2-0.6-0.6-1-0.8c-1.9,4.1-5.1,7.9-7.1,12.1c-2.2,4.7-4.9,9.3-7.7,13.6c-2.8,4.3-5.9,8.8-9,12.9
	c-1.7,2.2-3.7,4-5.7,5.8c0-3.4,0.7-7-0.8-9.5c-1,1.6-0.4,3-0.7,4.9c-0.4,2.2,0.6,1.2-1.8,3.4c-2,1.9-3.7,3.7-5.8,5.8
	c-0.7,0.7-1.4,1.4-2.3,2c-0.8-3.8-1.2-8.3-3.2-10.8c-0.6,1.9,0.6,4.1,0.8,6c0.2,2.3-0.1,4.6,0,6.9c0,0,0,0,0,0.1
	c-2.9,2.4-5.8,4.7-8.5,7.1c-1.3,1.2-2.6,2.4-3.8,3.7c0,0,0-0.1-0.1-0.1c-1.4-3.1-2.5-7.9-4.7-10.6c-0.7,2.3,1.2,6.1,1.7,8.4
	c0.2,1.6,0.5,3.2,0.7,4.8c-2.2,2.3-4.2,4.6-6.3,7c-2.6,3-6.1,5.7-7.9,9.1c-2.3-3.2-3-8.2-3.8-11.7c-2.5,5.4,1.1,11.9-0.1,17.7
	c-1.2,5.7-4.3,11.7-6.5,17.6c-0.5,1.3-1,2.5-1.4,3.8c-0.5-6.6-2.9-13.2-6.5-19.4c-3.1-5.2-6.3-8.5-10.5-12.3
	c0.4-1.7,0.7-3.5,1.2-4.4c1.6-3.8,3.5-4.2,7.1-5.3c7.3-2,15-3.4,14.1-12.6c-4.2,5.2-7.2,9-14.7,9c-5.7,0-9.1,4.7-11.3,9.9
	c-3.2-3.8-7.8-10.5-10.7-10.5c0.1-4.1-0.7-7.6-2.3-10.3c7.7-29.3,33.4-109.1,105.3-204.8C1004,328.1,1299.4,6,1299.4,6
	S993,329.1,919,430.8c-62.2,85.4-95.7,174.9-104.8,201.4c-4.6-3.4-10.8-4.9-17.1-5.5v-0.2c-0.8,0-1.8,0-2.6,0.1
	c-0.8,0-1.8-0.1-2.6-0.1v0.2c-6.3,0.6-12.5,2.2-17.1,5.5c-9.1-26.6-42.7-116-104.8-201.4C595.8,329.1,289.4,6,289.4,6
	s295.6,322.1,374.7,427.5c71.9,95.6,97.6,175.4,105.3,204.8c-1.6,2.8-2.4,6.3-2.3,10.3c-2.8-0.1-7.3,6.6-10.7,10.5
	c-2.2-5.2-5.7-9.9-11.3-9.9c-7.5,0.1-10.5-3.8-14.7-9c-1.1,9.4,6.6,10.6,14.1,12.6c3.6,1,5.5,1.4,7.1,5.3c0.4,1,0.7,2.8,1.2,4.4
	c-4.1,3.8-7.3,7.2-10.5,12.3c-3.6,6-6,12.6-6.5,19.4c-0.5-1.3-1-2.5-1.4-3.8c-2.2-5.9-5.3-11.8-6.5-17.6c-1.2-5.8,2.4-12.3-0.1-17.7
	c-0.8,3.5-1.6,8.3-3.8,11.7c-1.8-3.5-5.2-6-7.9-9.1c-2.2-2.4-4.2-4.7-6.3-7c0.2-1.6,0.4-3.1,0.7-4.8c0.4-2.4,2.3-6.1,1.7-8.4
	c-2.2,2.6-3.2,7.5-4.7,10.6c0,0,0,0.1-0.1,0.1c-1.2-1.2-2.5-2.5-3.8-3.7c-2.6-2.4-5.7-4.7-8.5-7.1c0,0,0,0,0-0.1
	c0.1-2.3-0.2-4.6,0-6.9c0.1-1.9,1.3-4,0.8-6c-2,2.5-2.4,7-3.2,10.8c-0.7-0.7-1.6-1.4-2.3-2c-2-2-3.7-3.8-5.8-5.8
	c-2.3-2.2-1.4-1.2-1.8-3.4c-0.2-1.8,0.2-3.4-0.7-4.9c-1.6,2.6-0.8,6.1-0.8,9.5c-2-1.8-4.1-3.7-5.8-5.8c-3.1-4.1-6.3-8.5-9-12.9
	c-2.8-4.4-5.5-9-7.7-13.6c-1.9-4.3-5.2-8.1-7.1-12.1c-0.4,0.2-0.6,0.6-1,0.8c-0.1-2.2,0-4.4-0.2-6c-0.6-4.1-1.6-7.9-1.2-12.1
	c2.2,0.2,3.7,2,5.7,2.4c-1.7-2.2-6.4-7.8-9.1-3.8c-2.9-1.6-12.1,0.7-9,5.2c0-7.1,7.8-1.2,9.1,1.9c1.8,4.2,1.6,9.6,2.5,14.1
	c-0.5,0.2-0.8,0.2-1.3,0.2c-2.2,0-3.4-2.2-5.5-1.9c1.2,2.4,4.6,2.9,6.5,4.8c2.4,2.4,2.6,5.2,4.3,7.9c3,4.8,6.3,10,9.9,14.7
	c3.4,4.4,6.5,8.4,9.6,12.9c1.6,2.3,4.6,6.5,7.5,9.3c-2.5,3.1-6.5,2.5-9.5,4.9c5.4,1.7,12.5-0.8,17.4,1.9c2.5,1.3,4.8,3.5,7.1,5.8
	c-0.1,0.2-0.1,0.5-0.2,0.7c-1.1,2.9-3.5,5.2-5.2,7.6c2.5-0.7,4.1-3.4,5.9-5.2c0.5-0.5,1-1,1.3-1.2c1.8,1.9,3.6,3.7,5.4,5.3
	c0.8,0.7,1.7,1.4,2.6,2.3c-1.2,2.2-4.3,4.2-6,5.9c1.9-1.2,3.7-2.4,5.9-3.5c0.6-0.2,1.1-0.7,1.7-1.2c4.8,4.3,9.4,8.9,12.9,14.2
	c-0.7,0.8-1.1,1.8-1.1,2.9c-2-0.7-5.9-1.7-8.2-1.1c1.2,2.4,4,3,5.8,4.4c2,1.7,3.4,4.2,4.3,6.5c2,4.8,3.4,9.6,4.7,14.7
	c2,7.3,4.4,14.9,7.2,22.2c-1.1,1.4-2,3.1-2.8,5.4c-1.8,6.1-3.8,12.9-5.2,18.9c-1.2,5.3-2.3,10.7-3.4,16c-2.8-2.2-5.5-4.1-8.1-6.6
	c-2.2-2.2-5.5-5.8-9-7.6c0-0.4-0.1-0.7-0.2-1.2c-0.5-3.8-3.2-8.1-3.4-12c-0.4,2.8,0.7,6.1,0.8,8.9c0.1,1.1,0,2.2-0.1,3.2
	c-2.4-0.5-4.6,0.1-6.4,2.8c-1.2-2.5-6.5-2.6-9.3-1.1c-3.4-0.2-6.1,0.7-8.8,1.9c-3.7-4.3-9.5-7.5-11.7-12.7c0.7,2.3,2.3,4.8,3.5,7.1
	c1.1,2.2,2.6,5.5,4.6,7.6c-2.2,1.2-4.6,2.4-7.3,3.1c-2.3,0.6-4.6,1.3-6.9,2c-3.5-3.6-7.5-6.9-10.6-10.8c1.7,2.6,3.4,5.5,4.8,8.4
	c0.5,1,1.4,2.3,2.2,3.6c-2.3,0.8-4.6,1.6-6.9,2.5c-0.7-0.8-1.6-1.9-2.6-3.1c-3.5-3.7-7.8-8.9-12.3-11.7c2.9,5.9,7.7,11.1,12.1,15.9
	c-1.1,0.5-2.2,0.8-3.2,1.3c-4.2,1.9-8.3,3.5-12.5,4.9c-3.7-3.4-7.2-6.9-11.3-10c1.1,3.1,3.7,4.8,6,7.1c1,1,1.9,2.4,3.1,3.6
	c-3.5,1.2-7,2.5-10.6,4c-0.7,0.2-1.3,0.6-2,0.8c-5.1-4.7-10.7-9.6-16.1-13.5c4,5.2,8.8,10,13.5,14.5c-2.3,1-4.7,2-6.9,2.5
	c-1.6,0.4-2.8,0.5-4,0.8c-0.6-0.1-1.2-0.4-1.9-0.5c-2.5-0.8-5.2-1.9-7.7-2.9c-2.3-1-5.4-3.4-8.1-3.1c2.9,1.7,5.4,4.4,8.3,6.1
	c1.2,0.7,2.9,1.4,4.4,2.4c-1,0.4-2,0.7-3.1,0.6c-0.1,0.2-0.2,0.5-0.4,0.7c-2.5-0.4-5.7,0.4-8.2,0.2c-3.8-0.1-8.8-0.6-12.7-1.3
	c-4.2-0.7-7.8-2.3-12.4-2.4c-4.4-0.1-8.2-0.6-12.1-1.3c-15.5-2.5-29-10.9-43.6-15.5c-0.4-3.1,3.4-5.2,4.9-7.5
	c-4.3,0.8-9.6,9.4-14.1,4c0.7,1.3,1.4,3,1.8,4.4c0.7,2.3-0.2,3.6,0.1,5.7c0.5,2.6,1.4,5.4,1,7.9c1.6-4.8,2.3-10.3,8.7-7.9
	c4.8,1.8,8.9,4,14.1,5.3c4.8,1.3,9.6,3.2,14.2,5.2c3.2,1.3,11.3,5.2,11.7,8.8c-0.6,0.1-1.2,0.2-1.8,0.2c2,1.6,9-1.4,12.1-1.4
	c5.1,0,9.3,0.8,14.2,1.3c7.3,0.7,14.9,0.4,22.4,0.1c0.7,2.4,2.4,4.4,4.8,4.9c0.6,0.1,1.1,0.1,1.7,0c0,0.2-0.1,0.4-0.1,0.6
	c-1.1,3.2-3.5,7.7-3,11.1c1.8-3.7,3.5-7.2,5.1-11.1c0.2-0.5,0.4-1,0.6-1.4c2.8-1.3,5.8-3.8,7.9-4.9c3.5-1.8,7.3-3.4,11.3-4.8
	c-0.1,1.1-0.1,2.2-0.4,3.2c-0.6,3.8-0.2,8.4-1.8,12c1.8-3.2,2.3-7.6,3.1-11.3c0.4-1.6,0.6-3.1,1.1-4.7c4.6-1.4,9.1-2.5,13.7-3.4
	c1.4-0.2,2.8-0.6,4.2-0.8c0,6-0.8,12.1-1,18.2c1.7-4.2,1.4-9.6,2.5-14.1c0.4-1.6,1-3.2,1.3-4.8c4.4-1.3,8.8-2.9,13-4.7
	c0.6,3,1,6.3,0.7,9c0.2-0.6,0.4-1,0.5-1.6c0.2-2.2-0.1-4.4,0-6.5c0-0.4,0-0.8,0-1.4c2.5-1.1,5.1-2.3,7.7-3.6
	c7.5-3.6,15.8-6.5,22-12.4c2.2,0.5,4.4,0.4,5.7-0.2c-1.2,4.9-0.7,6.5,2.6,10.8c1.7,2.2,3.4,4.2,4.9,6.4c-1.2,2-2.8,4.1-3.4,5.7
	c1.3-0.7,2.5-2.5,3.8-3.5c0.2-0.1,0.5-0.4,0.7-0.5c1,1.3,2,2.8,3.1,4.1c0.8,1.1,1.7,2.2,2.4,3.2c-0.2,4.1-2,8.2-4.1,12.4
	c2.9-2.2,5.2-5.1,7.7-7.7c0.6,0.7,1.1,1.6,1.7,2.3c0.4,0.4,0.6,0.8,1,1.3c-5.8,24.6-6,52.4-4,78.4c0.5,5.8,1.2,11.3,2,17
	c-3.4,0.2-6.7,0.4-9.7,1.2c-6.6,1.7-13.1,1.4-19.7,3.4c-4.1,1.2-12.5,3.2-18.5,6.9c-1.2-1.3-2.2-2.9-3.4-3.8c-2.6-2.3-6-4.1-9.4-4.9
	c3.6,3.1,8.5,5.7,11.3,9.9c-4.4,3.1-6.9,7.2-4.1,12.6c-3.1,1.7-8.4,0.1-10.9,2.6c2.2,0.2,4.1-0.8,6.3-0.8c1.7,0,3.2,0.2,4.9,0.4
	c-0.6,2.8-1,5.5-1.2,8.4c-2.6,3.2-6.7,5.7-9.6,8.3c3.1-1,6.5-1.9,9.4-3.6c-0.1,6,0.2,12,0.4,17.9c-0.4,0.8-1,1.4-2.2,2.2
	c-2.4,1.3-4.9,1.7-7.2,3.2c1.9,0.6,3.4-0.7,4.9-1.3c1.3-0.5,3.1-0.6,4.3-1.4c0,1.8-0.1,4.7-0.1,8.3c-0.1,0.5-0.4,0.8-0.6,1.3
	c-2.2,2.8-6.6,2.5-9.4,4.3c2.2,0.6,3.8-1.1,5.9-1.6c1.4-0.4,2.8-0.5,4-1c-0.1,5.7-0.4,12.9-0.6,20.8c-0.5,0.5-1.1,0.8-1.3,1.1
	c-1.7,1.3-5.8,1.6-6.7,3.4c2.3-0.4,5.8-1.4,7.9-0.7c-0.1,5.2-0.4,10.7-0.5,16.4c-1,0.6-1.9,1.3-3.1,1.7c-1.6,0.4-3.2,0.1-4.6,1.1
	c1.3,1.6,3-0.4,4.6-0.4c1.2,0,2,0.5,3.1,0.7c-0.1,4.9-0.4,10-0.5,15c-2.2,0.8-5.4,2.9-7,4.3c2.4-0.5,4.3-1,6.9-0.8
	c-0.1,4.6-0.2,9-0.4,13.5c-1.9,1.9-4.6,3.8-6.3,4.6c2.6,0.5,4.2-2,6.3-2.8c-0.1,4.8-0.2,9.4-0.4,13.8c-1.6,1.6-3.6,2.8-5.4,4.2
	c1.6-1,3.5-1,5.3-1c-0.1,7.3-0.2,13.7-0.4,18.5c-2.4,2.3-5.5,3.8-7.1,7.1c2.5-0.6,4.9-2.5,7.5-3.6c0.4,2.2,1.1,4.7,2.2,6.5
	c-1.6,4-3.5,11.2-4.3,13.5c-2.3,5.8-4.7,12-7.9,17.3c-3.5,6-7.2,11.8-11.3,17.4c-1.8,2.5-4.3,4.9-6.1,7.6c-1.7,2.4-1.7,3.1-1,3.2
	c-2.6,1.9-4.9,4.4-7.2,7c-3.1,3.5-7.2,6.9-10.1,10.5c2.4,0.2,3.5-1.6,5.4-2.4c-0.5,3.5-5.5,8.4-7.5,11.5c-2.3,3.6-5.1,7.7-6,12
	c-3.1,1.2-6.1,3.7-8.8,5.2c2.9,0.4,4.8-2,7.6-1.9c0.1-0.4,0.1-0.7,0.2-1.1c2.4-0.1,3.5,7.1,3.7,9.4c1.9-2.5,0.8-8.2,1.9-11.3
	c1.3-3.7,3.5-7.3,5.3-10.8c1.7-3.2,3.1-6,5.7-8.5c3.5-3.6,3.5-4.4,4-9.6c3.7,0.1,7.8-5.8,10.6-10.3c0.1,0,0.1,0,0.2,0
	c-0.2,1.8,0,3.6,1.9,3.6c5.2-11.5,10.9-23.2,16.4-34.6c2.4-5.1,4.7-9.9,6.9-14.8c1.3-3,2.3-7,3.1-10.5c1.2,0.2,2.6-0.4,4.3-2.3
	c0.5-0.5,0.8-1.3,1.1-2.4c2.8,3.5,5.3,6.9,9,9.6c-3.4-3.8-6.1-7.9-8.5-12.3c0.7-5.2,0.4-12.5,0.4-15.5c0-1.1,0-2.8,0-4.9
	c2.6,1.1,5.3,2.6,6.5,4.3c-1.2-2.2-1.1-3.1-3.5-4.6c-1-0.6-2-1.2-3.1-1.8c-0.1-5.7-0.4-14.1-0.5-23.8c1.3,1.1,2.6,2,4.1,2.8
	c3,1.4,6.4,1.7,9.3,3.1c-1.1-1.3-3.1-2.3-4.6-3.4c-1.8-1.6-3.6-3.4-5.5-4.8c-1-0.7-2.2-1.4-3.2-2.3c-0.1-6.9-0.4-14.4-0.5-22.2
	c1.9,0.8,3.8,1.7,5.8,2.5c2.6,1.1,7.3,3.6,10.2,3.5c-2.8-1.8-5.4-3.7-8.4-5.3c-1.8-1-5.1-3.4-7.7-4.4c-0.1-8.8-0.2-17.8-0.4-26.6
	c1.9,0.6,4,1.1,5.4,1.9c3.1,2,6.4,4.3,9.3,6.5c-2.9-3.1-5.5-4.8-9-7.3c-1.2-0.8-3.7-2.4-5.8-3.8c0-5.7,0-11.2,0-16.6
	c4.9,2.3,9.9,5.2,15.3,6.9c-4-4-10.2-6.5-14.5-10.1c-0.2-0.2-0.5-0.4-0.6-0.6c0.1-14.2,0.6-26.7,1.4-34.7c2.5,0.4,5.4,0.1,8.2-0.1
	c1.4,1.9,3,3.7,4.8,5.4c1.8,1.8,3.5,4.6,5.5,5.9c0.1-1.9-3.6-5.4-4.6-7.3c-0.6-1.2-1.6-2.8-2.2-4.3c3.7-0.1,6.6,0.1,9.6,0.6
	c1.3,2.3,2.8,4.4,4.1,6.6c-0.5-1-1-1.9-1.2-3c-0.2-1.1-0.5-2.2-0.6-3.2c1.2,0.2,2.5,0.6,4,1c3.6,0.8,8.1,1.4,12.3,1.8
	c1,3.6,1.4,8.1,1.4,10.7c0-3.5,0-7.1,0-10.6c2.2,0.2,4.2,0.4,6,0.5c0.6,0,1.4,0.1,2.2,0.1c1,10.9,3.5,21.8,5.5,32.5
	c5.3,28.9,10.3,57.5,18.8,85.9c2.6,8.8,4.9,17.6,7.6,26.2c-6.3,3.8-16.7,14.8-20.1,17.7c-8.2,7.3-16.6,12.9-25.6,18.8
	c4.7-0.4,10.1-4.7,14.4-6.7c5.5-2.5,10.8-5.2,16.1-7.9c6-3.2,12.7-6.3,18.8-9.9c2.2,6.5,4.4,13,7.2,19.4c3.7,8.8,9.6,17.8,15.9,25.1
	c4.2,4.9,14.5,14.3,21.6,11.2c7.1,3.1,17.4-6.3,21.6-11.2c6.3-7.3,12-16.4,15.9-25.1c2.8-6.4,5.1-12.9,7.2-19.4
	c6,3.6,12.7,6.6,18.8,9.9c5.3,2.8,10.6,5.4,16.1,7.9c4.3,2,9.7,6.4,14.4,6.7c-9-5.9-17.4-11.4-25.6-18.8
	c-3.2-2.9-13.8-13.8-20.1-17.7c2.5-8.7,4.9-17.6,7.6-26.2c8.4-28.4,13.5-57,18.8-85.9c1.9-10.8,4.4-21.5,5.5-32.5
	c0.8,0,1.6,0,2.2-0.1c1.8-0.1,3.8-0.2,6-0.5c0,3.5,0,7.1,0,10.6c0-2.6,0.5-7.1,1.4-10.7c4.2-0.4,8.7-1,12.3-1.8c1.4-0.4,2.8-0.6,4-1
	c-0.1,1.1-0.4,2.2-0.6,3.2c-0.2,1.1-0.7,2-1.2,3c1.3-2.2,2.8-4.3,4.1-6.6c3-0.6,6-0.8,9.6-0.6c-0.6,1.6-1.6,3.1-2.2,4.3
	c-1,1.8-4.7,5.3-4.6,7.3c2-1.3,3.7-4.1,5.5-5.9c1.8-1.8,3.4-3.5,4.8-5.4c2.8,0.2,5.7,0.6,8.2,0.1c0.8,8.2,1.3,20.6,1.4,34.7
	c-0.2,0.2-0.4,0.4-0.6,0.6c-4.4,3.6-10.6,6.1-14.5,10.1c5.4-1.7,10.3-4.6,15.3-6.9c0,5.3,0,10.9,0,16.6c-1.9,1.4-4.6,3-5.8,3.8
	c-3.5,2.5-6,4.2-9,7.3c2.9-2.2,6.1-4.4,9.3-6.5c1.3-0.8,3.5-1.3,5.4-1.9c0,8.9-0.1,17.9-0.4,26.6c-2.8,1.1-5.9,3.5-7.7,4.4
	c-2.9,1.6-5.7,3.5-8.4,5.3c2.9,0.1,7.6-2.4,10.2-3.5c1.9-0.8,3.8-1.7,5.8-2.5c-0.1,7.8-0.2,15.3-0.5,22.2c-1.2,0.8-2.4,1.6-3.2,2.3
	c-1.9,1.4-3.7,3.4-5.5,4.8c-1.4,1.2-3.5,2-4.6,3.4c2.9-1.4,6.4-1.7,9.3-3.1c1.4-0.7,2.8-1.7,4.1-2.8c-0.2,9.9-0.5,18.2-0.5,23.8
	c-1.1,0.6-2.2,1.2-3.1,1.8c-2.3,1.4-2.3,2.4-3.5,4.6c1.2-1.7,4-3.2,6.5-4.3c0,2.2,0,3.8,0,4.9c0,3-0.4,10.3,0.4,15.5
	c-2.4,4.3-5.2,8.4-8.5,12.3c3.7-2.8,6.3-6.3,9-9.6c0.2,1,0.6,1.8,1.1,2.4c1.7,2,3.1,2.6,4.2,2.3c0.8,3.6,1.7,7.6,3.1,10.5
	c2.3,4.9,4.6,9.9,6.9,14.8c5.5,11.4,11.3,23.1,16.4,34.6c1.9-0.1,2.2-1.8,1.9-3.6c0.1,0,0.1,0,0.2,0c2.8,4.6,6.9,10.5,10.6,10.3
	c0.5,5.2,0.5,6,4,9.6c2.5,2.5,4,5.3,5.7,8.5c1.8,3.5,4,7.1,5.3,10.8c1.2,3.1,0.1,8.9,1.9,11.3c0.2-2.2,1.3-9.4,3.7-9.4
	c0.1,0.4,0.1,0.7,0.2,1.1c2.8-0.1,4.7,2.3,7.6,1.9c-2.6-1.4-5.8-3.8-8.8-5.2c-1-4.2-3.7-8.3-6-12c-1.9-3.1-7-8.1-7.5-11.5
	c2,0.8,3.1,2.5,5.4,2.4c-2.9-3.6-7-7-10.1-10.5c-2.3-2.5-4.6-5.1-7.2-7c0.7-0.1,0.7-0.8-1-3.2c-1.8-2.6-4.3-4.9-6.1-7.6
	c-4-5.7-7.8-11.4-11.3-17.4c-3.1-5.3-5.7-11.5-7.9-17.3c-1-2.3-2.8-9.5-4.3-13.5c1.1-1.8,1.8-4.3,2.2-6.5c2.5,1,4.9,3,7.5,3.6
	c-1.6-3.1-4.7-4.8-7.1-7.1c0-4.8-0.1-11.3-0.4-18.5c1.8,0.1,3.8,0,5.3,1c-1.8-1.3-3.8-2.6-5.4-4.2c-0.1-4.3-0.2-9-0.4-13.8
	c2,0.7,3.5,3.2,6.3,2.8c-1.7-0.7-4.3-2.6-6.3-4.6c-0.1-4.3-0.2-8.9-0.4-13.5c2.5-0.1,4.4,0.4,6.9,0.8c-1.6-1.4-4.8-3.5-7-4.3
	c-0.1-5.1-0.4-10.1-0.5-15c1-0.2,1.9-0.7,3.1-0.7c1.6,0,3.2,1.9,4.6,0.4c-1.3-1-3-0.7-4.6-1.1c-1.2-0.4-2.2-1.1-3.1-1.7
	c-0.1-5.7-0.4-11.2-0.5-16.4c2.2-0.8,5.7,0.4,7.9,0.7c-1-1.8-4.9-2-6.7-3.4c-0.2-0.2-0.8-0.6-1.3-1.1c-0.2-7.9-0.5-15.2-0.6-20.8
	c1.3,0.5,2.5,0.6,4,1c2,0.5,3.7,2.2,5.9,1.6c-2.8-1.8-7.2-1.6-9.4-4.3c-0.2-0.4-0.5-0.8-0.6-1.3c-0.1-3.6-0.1-6.5-0.1-8.3
	c1.2,0.8,3,1,4.3,1.4c1.6,0.6,3,1.9,4.9,1.3c-2.3-1.6-4.8-1.9-7.2-3.2c-1.1-0.6-1.7-1.3-2.2-2.2c0-5.9,0.5-12,0.4-17.9
	c2.9,1.6,6.3,2.6,9.4,3.6c-2.9-2.6-7-5.2-9.6-8.3c-0.2-2.9-0.6-5.7-1.2-8.4c1.7-0.1,3.4-0.4,4.9-0.4c2.2,0,4.2,1,6.3,0.8
	c-2.5-2.5-7.8-1.1-10.9-2.6c2.9-5.5,0.4-9.6-4.1-12.6c2.8-4.2,7.7-6.9,11.3-9.9c-3.4,0.8-6.7,2.6-9.4,4.9c-1.2,1.1-2.3,2.5-3.4,3.8
	c-6-3.6-14.4-5.7-18.5-6.9c-6.6-1.9-13.1-1.7-19.7-3.4c-3-0.7-6.5-0.8-9.7-1.2c0.8-5.5,1.6-11.2,2-17c2-26,1.8-53.7-4-78.4
	c0.4-0.5,0.7-1,1-1.3c0.6-0.7,1.1-1.6,1.7-2.3c2.4,2.6,4.7,5.5,7.7,7.7c-1.9-4.2-3.8-8.3-4.1-12.4c0.8-1.1,1.7-2.2,2.4-3.2
	c1.1-1.4,2-2.8,3.1-4.1c0.2,0.1,0.5,0.4,0.7,0.5c1.3,1,2.5,2.9,3.8,3.5c-0.6-1.6-2.2-3.5-3.4-5.7c1.6-2.2,3.2-4.2,4.9-6.4
	c3.4-4.3,3.8-5.9,2.6-10.8c1.2,0.6,3.5,0.7,5.7,0.2c6.1,5.9,14.4,8.8,22,12.4c2.6,1.2,5.2,2.4,7.7,3.6c0,0.6,0,1.1,0,1.4
	c0.1,2.2-0.4,4.4,0,6.5c0.1,0.6,0.1,1,0.5,1.6c-0.2-2.8,0.1-6,0.7-9c4.2,1.8,8.5,3.5,13,4.7c0.4,1.7,1,3.4,1.3,4.8
	c1,4.4,0.8,9.7,2.5,14.1c-0.1-6-1-12.1-1-18.2c1.3,0.4,2.8,0.6,4.1,0.8c4.4,0.8,9.1,1.9,13.7,3.4c0.4,1.6,0.7,3.1,1.1,4.7
	c0.8,3.7,1.3,8.1,3.1,11.3c-1.6-3.6-1.1-8.2-1.8-12c-0.1-1.1-0.2-2.2-0.4-3.2c4,1.3,7.8,2.9,11.3,4.8c2.2,1.1,5.1,3.6,7.9,4.9
	c0.2,0.5,0.4,1,0.6,1.4c1.7,3.7,3.4,7.3,5.1,11.1c0.5-3.4-1.9-7.8-3-11.1c0-0.1-0.1-0.4-0.1-0.6c0.6,0.1,1.2,0.1,1.7,0
	c2.4-0.5,4.1-2.5,4.8-4.9c7.5,0.2,15,0.6,22.4-0.1c4.9-0.5,9-1.3,14.2-1.3c3.1,0,10.1,3,12.1,1.4c-0.6,0-1.2-0.1-1.8-0.2
	c0.4-3.6,8.4-7.3,11.7-8.8c4.4-1.9,9.4-3.8,14.2-5.2c5.1-1.3,9.1-3.5,14.1-5.3c6.4-2.4,7.1,3.1,8.7,7.9c-0.5-2.5,0.6-5.3,1-7.9
	c0.4-2-0.6-3.4,0.1-5.7c0.5-1.3,1.2-3,1.8-4.4C1090.2,763.4,1085,754.9,1080.7,754.1z M940.3,586.1c0,0.1,0,0.4,0,0.5
	c-0.1,0-0.1-0.1-0.2-0.1L940.3,586.1z M648.5,586.4c0-0.1,0-0.4,0-0.5l0.2,0.4C648.7,586.4,648.7,586.4,648.5,586.4z"/>
</svg>
